<svg width="36" height="36" viewBox="0 0 36 36" fill="none" xmlns="http://www.w3.org/2000/svg">
<circle cx="18" cy="18" r="17.5" fill="#F5F5F5" stroke="black"/>
<path d="M13.277 23.21C12.6097 23.21 12.017 23.0747 11.499 22.804C10.981 22.5333 10.575 22.1577 10.281 21.677C9.987 21.1963 9.84 20.6457 9.84 20.025C9.84 19.4697 9.96833 18.954 10.225 18.478C10.4817 18.002 10.8573 17.6217 11.352 17.337L11.317 17.876C10.9297 17.582 10.6287 17.2437 10.414 16.861C10.204 16.4737 10.099 16.0397 10.099 15.559C10.099 14.9803 10.2343 14.4787 10.505 14.054C10.7803 13.6293 11.156 13.3003 11.632 13.067C12.108 12.829 12.6563 12.71 13.277 12.71C13.8977 12.71 14.446 12.829 14.922 13.067C15.4027 13.3003 15.7783 13.6293 16.049 14.054C16.3243 14.4787 16.462 14.9803 16.462 15.559C16.462 16.0397 16.3593 16.4713 16.154 16.854C15.9533 17.2367 15.6477 17.582 15.237 17.89L15.23 17.344C15.7153 17.6193 16.0863 17.9973 16.343 18.478C16.6043 18.954 16.735 19.4697 16.735 20.025C16.735 20.6457 16.5857 21.1963 16.287 21.677C15.993 22.1577 15.5847 22.5333 15.062 22.804C14.544 23.0747 13.949 23.21 13.277 23.21ZM13.277 21.621C13.7717 21.621 14.173 21.4857 14.481 21.215C14.7937 20.9443 14.95 20.5477 14.95 20.025C14.95 19.5023 14.796 19.1057 14.488 18.835C14.18 18.5597 13.7763 18.422 13.277 18.422C12.7823 18.422 12.3833 18.5597 12.08 18.835C11.7767 19.1057 11.625 19.5023 11.625 20.025C11.625 20.5477 11.7767 20.9443 12.08 21.215C12.3833 21.4857 12.7823 21.621 13.277 21.621ZM13.277 16.819C13.6923 16.819 14.0283 16.7163 14.285 16.511C14.5463 16.301 14.677 15.9837 14.677 15.559C14.677 15.1343 14.5463 14.8193 14.285 14.614C14.0283 14.404 13.6923 14.299 13.277 14.299C12.8663 14.299 12.5303 14.404 12.269 14.614C12.0123 14.8193 11.884 15.1343 11.884 15.559C11.884 15.9837 12.0123 16.301 12.269 16.511C12.5303 16.7163 12.8663 16.819 13.277 16.819ZM20.9183 21.124V18.618H18.4123V17.295H20.9183V14.796H22.2413V17.295H24.7333V18.618H22.2413V21.124H20.9183Z" fill="black"/>
</svg>
