<svg width="28" height="35" viewBox="0 0 28 35" fill="none" xmlns="http://www.w3.org/2000/svg">
<path d="M23.6659 11.002C23.437 10.7796 23.1159 10.6785 22.8016 10.7302C22.4868 10.7817 22.2149 10.9794 22.0688 11.263C21.5665 12.2388 20.9285 13.1356 20.1778 13.9284C20.2526 13.3557 20.2903 12.7796 20.2903 12.202C20.2903 11.0937 20.1418 9.95311 19.8487 8.81161C18.885 5.06228 16.3579 1.89152 12.9157 0.112398C12.6161 -0.0424449 12.259 -0.0370083 11.9641 0.126896C11.6693 0.290868 11.4762 0.591493 11.4497 0.927759C11.1814 4.33498 9.42636 7.4348 6.632 9.43441C6.59502 9.46106 6.5583 9.48804 6.52159 9.51489C6.44554 9.57053 6.37386 9.62315 6.30688 9.66731C6.29641 9.67429 6.286 9.68141 6.2758 9.68872C4.51836 10.947 3.06825 12.6243 2.08208 14.5398C1.07999 16.4882 0.571899 18.579 0.571899 20.754C0.571899 21.862 0.720434 23.0026 1.01341 24.1443C2.55949 30.1619 7.97492 34.3648 14.1827 34.3648C21.6874 34.3648 27.7928 28.259 27.7928 20.754C27.7928 17.0531 26.3272 13.5897 23.6659 11.002Z" fill="#409BEE"/>
</svg>
